<svg height="35mm" viewBox="0 0 35 35" width="35mm" xmlns="http://www.w3.org/2000/svg"><g transform="translate(-2.18605 -2.3957)"><path d="m6.3131 26.03-.85923-8.151 2.5631 1.5827 4.4405-10.454 2.1162 2.2101 5.753-5.6588 8.12 8.5541 2.391-2.4806 2.9869 5.4325.20068 4.277 1.7299-.64695-1.1732 6.7096-4.7851 5.5067-9.6711 1.6354-8.4241-.95661-7.1426-7.7507z"/><path d="m14.9 11.613 8.9241 4.8508m4.312-1.9502-5.4435 2.4424-9.2103 3.4661m-5.0298-.60886 7.4963.93843 7.0171 1.2745 5.7959.95836m-22.449 3.045-.85923-8.151 2.5631 1.5827 4.4405-10.454 2.1162 2.2101 5.753-5.6588 8.12 8.5541 2.391-2.4806 2.9869 5.4325.20068 4.277 1.7299-.64695-1.1732 6.7096-4.7851 5.5067-9.6711 1.6354-8.4241-.95661-7.1426-7.7507zm27.712-4.6883-1.5122.57714-8.315 2.3837-12.671 2.1292-4.1403-.28553-.50399-.05735" fill="none" stroke="#f0f0f0" stroke-width="1.5"/></g></svg>